<svg xmlns="http://www.w3.org/2000/svg" viewBox="0 0 24 24">
  <path fill="#25D366" d="M12.04 2C6.58 2 2.13 6.45 2.13 11.91c0 1.75.46 3.45 1.32 4.95L2.05 22l5.25-1.38c1.45.79 3.08 1.21 4.74 1.21 5.46 0 9.91-4.45 9.91-9.91C21.95 6.45 17.5 2 12.04 2zm5.82 14.01c-.24.68-1.41 1.3-1.95 1.38-.5.07-1.13.1-1.82-.11-.42-.13-.96-.32-1.65-.63-2.9-1.26-4.79-4.19-4.93-4.39-.15-.2-1.18-1.57-1.18-3 0-1.43.75-2.14 1.01-2.43.27-.3.58-.37.78-.37.19 0 .39 0 .56.01.18.01.42-.07.66.5.24.58.83 2.02.9 2.17.07.15.12.32.02.52-.1.2-.15.32-.3.49-.14.17-.3.39-.43.52-.14.15-.3.3-.13.59.17.29.75 1.24 1.61 2.01 1.11.99 2.04 1.3 2.33 1.44.29.15.46.12.63-.07.17-.2.73-.85.93-1.14.19-.29.39-.24.66-.15.27.1 1.71.81 2 .95.3.15.49.22.56.34.08.12.08.68-.16 1.36z"/>
</svg>
