<svg xmlns="http://www.w3.org/2000/svg" viewBox="0 0 100 100">
  <!-- Royal Blue petals -->
  <g fill="#2563eb">
    <ellipse cx="50" cy="20" rx="10" ry="18" transform="rotate(0 50 50)"/>
    <ellipse cx="50" cy="20" rx="10" ry="18" transform="rotate(30 50 50)"/>
    <ellipse cx="50" cy="20" rx="10" ry="18" transform="rotate(60 50 50)"/>
    <ellipse cx="50" cy="20" rx="10" ry="18" transform="rotate(90 50 50)"/>
    <ellipse cx="50" cy="20" rx="10" ry="18" transform="rotate(120 50 50)"/>
    <ellipse cx="50" cy="20" rx="10" ry="18" transform="rotate(150 50 50)"/>
    <ellipse cx="50" cy="20" rx="10" ry="18" transform="rotate(180 50 50)"/>
    <ellipse cx="50" cy="20" rx="10" ry="18" transform="rotate(210 50 50)"/>
    <ellipse cx="50" cy="20" rx="10" ry="18" transform="rotate(240 50 50)"/>
    <ellipse cx="50" cy="20" rx="10" ry="18" transform="rotate(270 50 50)"/>
    <ellipse cx="50" cy="20" rx="10" ry="18" transform="rotate(300 50 50)"/>
    <ellipse cx="50" cy="20" rx="10" ry="18" transform="rotate(330 50 50)"/>
  </g>
  <!-- Center with circuit vibe -->
  <circle cx="50" cy="50" r="18" fill="#ffffff" stroke="#2563eb" stroke-width="2"/>
  <path d="M42 50h16 M50 42v16 M44 44l12 12 M56 44l-12 12" stroke="#2563eb" stroke-width="2.5" stroke-linecap="round"/>
</svg>
